<?xml version="1.0" encoding="UTF-8" standalone="no"?>
<!-- Created with Inkscape (http://www.inkscape.org/) -->
<svg
   xmlns:dc="http://purl.org/dc/elements/1.1/"
   xmlns:cc="http://creativecommons.org/ns#"
   xmlns:rdf="http://www.w3.org/1999/02/22-rdf-syntax-ns#"
   xmlns:svg="http://www.w3.org/2000/svg"
   xmlns="http://www.w3.org/2000/svg"
   xmlns:sodipodi="http://sodipodi.sourceforge.net/DTD/sodipodi-0.dtd"
   xmlns:inkscape="http://www.inkscape.org/namespaces/inkscape"
   width="885.40857"
   height="609.54688"
   id="svg2"
   sodipodi:version="0.32"
   inkscape:version="0.46"
   sodipodi:docname="bird.svg"
   inkscape:output_extension="org.inkscape.output.svg.inkscape"
   version="1.0"
   inkscape:export-filename="D:\bird.png"
   inkscape:export-xdpi="90"
   inkscape:export-ydpi="90">
  <defs
     id="defs4">
    <inkscape:perspective
       sodipodi:type="inkscape:persp3d"
       inkscape:vp_x="0 : 526.18109 : 1"
       inkscape:vp_y="0 : 1000 : 0"
       inkscape:vp_z="744.09448 : 526.18109 : 1"
       inkscape:persp3d-origin="372.04724 : 350.78739 : 1"
       id="perspective10" />
  </defs>
  <sodipodi:namedview
     id="base"
     pagecolor="#ffffff"
     bordercolor="#666666"
     borderopacity="1.0"
     gridtolerance="10000"
     guidetolerance="10"
     objecttolerance="10"
     inkscape:pageopacity="0.0"
     inkscape:pageshadow="2"
     inkscape:zoom="0.49497475"
     inkscape:cx="347.76616"
     inkscape:cy="356.30817"
     inkscape:document-units="px"
     inkscape:current-layer="layer1"
     showgrid="false"
     inkscape:window-width="1024"
     inkscape:window-height="696"
     inkscape:window-x="-4"
     inkscape:window-y="-4" />
  <metadata
     id="metadata7">
    <rdf:RDF>
      <cc:Work
         rdf:about="">
        <dc:format>image/svg+xml</dc:format>
        <dc:type
           rdf:resource="http://purl.org/dc/dcmitype/StillImage" />
      </cc:Work>
    </rdf:RDF>
  </metadata>
  <g
     inkscape:label="Layer 1"
     inkscape:groupmode="layer"
     id="layer1"
     transform="translate(91.148384,-189.41118)">
    <path
       style="opacity:1;fill:#000000;fill-opacity:1;stroke:#000000;stroke-width:1;stroke-linecap:round;stroke-linejoin:round;stroke-miterlimit:7.69999981;stroke-dasharray:none;stroke-dashoffset:0;stroke-opacity:1"
       id="path2387"
       d="M 113.62958,445.87608 C 117.30426,440.86919 119.64165,435.06079 122.15502,429.42383 C 127.13289,418.65814 132.27469,407.97314 137.03703,397.10838 C 141.51278,387.21451 145.70529,377.18264 149.2834,366.92686 C 150.10049,364.62481 150.43539,363.34689 151.59343,361.25662 C 152.10346,360.336 153.34021,358.47096 154.32535,357.89115 C 173.692,346.49288 166.86606,347.6845 176.85541,346.42059 C 186.76815,346.01253 196.70407,346.28968 206.62158,346.4516 C 225.5602,346.67357 244.49926,346.86976 263.43948,346.8271 C 280.51507,346.80609 297.59132,346.721 314.66627,346.56096 C 326.57999,346.49821 338.49406,346.50396 350.40798,346.48814 C 361.43304,346.40042 372.45815,346.51495 383.48329,346.48998 C 394.4248,346.44824 405.43316,346.97095 416.28088,345.30833 C 422.39974,344.08748 428.50049,342.85144 434.71381,342.23577 C 439.8549,341.84749 445.01588,341.95351 450.16691,341.98148 C 459.36772,342.14904 468.5705,342.10817 477.77235,342.15308 C 483.38005,342.14287 488.9875,342.09014 494.59492,342.03786 C 495.62502,342.02825 496.66093,341.89514 497.68519,342.00509 C 498.58467,342.10165 499.44225,342.43671 500.32078,342.65252 C 506.20359,344.80376 509.1964,350.45745 512.70614,355.2645 C 519.47452,363.33155 525.41013,372.04248 531.80826,380.39824 C 537.12191,388.88893 542.79273,397.1627 547.75231,405.8683 C 551.52483,413.36024 554.2947,421.27471 558.48278,428.55601 L 540.694,438.80753 C 536.58853,431.4607 534.08424,423.42564 530.15606,415.98797 C 527.91066,411.83262 525.39005,407.97547 522.86569,403.99068 C 516.52264,393.97796 523.90142,405.29551 517.62454,395.18302 C 516.66394,393.63542 515.62617,392.13707 514.62698,390.6141 C 508.24751,382.22955 502.14778,373.61638 495.19541,365.68879 C 491.73963,361.4467 488.79898,356.15233 483.25081,354.52563 C 476.10398,353.33839 468.69202,354.48073 461.48518,353.98476 C 452.14791,354.01756 442.80975,353.95254 433.47344,354.11505 C 428.30855,354.16295 423.1335,354.17705 417.98599,354.65445 C 411.9561,355.30432 406.02234,356.53472 400.0287,357.43864 C 389.15919,358.58343 378.23107,358.13313 367.31851,358.23439 C 356.29143,358.20929 345.26438,358.32411 334.23738,358.23683 C 322.38932,358.22162 310.54109,358.22869 298.69323,358.16599 C 281.87551,358.00331 265.05657,357.9161 248.23823,357.86929 C 229.0655,357.7898 209.89318,357.95132 190.72067,357.99442 C 180.58486,358.07358 170.36453,357.72115 160.29036,358.96784 C 151.90121,361.33707 157.25773,360.05283 173.75275,350.13698 C 174.3228,349.7943 172.54258,350.71824 172.02666,351.13802 C 169.81406,352.93833 168.73488,355.73613 167.75371,358.29951 C 163.97071,368.68607 159.50277,378.81494 154.96642,388.8892 C 150.24849,399.59758 145.4984,410.28896 140.64054,420.93493 C 138.30502,426.53139 135.99021,432.16447 133.11,437.48124 L 113.62958,445.87608 z" />
    <path
       style="opacity:1;fill:#000000;fill-opacity:1;stroke:#000000;stroke-width:1;stroke-linecap:round;stroke-linejoin:round;stroke-miterlimit:7.69999981;stroke-dasharray:none;stroke-dashoffset:0;stroke-opacity:1"
       id="path2391"
       d="M 143.71657,584.2965 C 143.85673,588.53214 144.40076,592.75631 145.56996,596.83056 C 147.00572,602.05056 149.83637,606.60493 152.92668,610.99043 C 157.12062,615.96914 162.02283,620.33031 166.84455,624.69404 C 171.62991,629.53656 177.18558,633.50484 182.63118,637.5567 C 189.4846,643.24784 196.97486,648.05792 204.44509,652.88098 C 211.31851,657.48859 218.67356,661.09733 226.22569,664.42143 C 233.16415,667.74384 240.11237,671.04191 247.17595,674.0938 C 253.96821,676.52948 260.41789,679.77701 267.10418,682.4801 C 274.63332,685.26565 282.28214,687.69114 289.84889,690.37158 C 298.05977,692.90431 306.54154,694.60066 315.00393,696.08137 C 322.09219,697.29622 329.28022,697.56827 336.45416,697.72261 C 343.19486,697.83124 349.9367,697.78363 356.6779,697.76217 C 364.11376,697.82473 371.54987,697.74336 378.98563,697.78332 C 386.31159,697.77455 393.66623,698.04969 400.88265,696.63258 C 407.49906,695.37722 414.10367,693.98981 420.77294,693.04162 C 426.33937,692.90441 431.57258,691.04679 437.00814,690.10639 C 439.56758,689.65444 442.25627,689.49943 444.78416,688.87765 C 447.17217,688.29028 449.46137,687.03359 451.70295,686.05436 C 452.4565,685.78853 453.23843,685.59248 453.9636,685.25687 C 455.24998,684.66153 456.347,683.70611 457.62808,683.09945 C 459.53097,682.19834 461.57603,681.41497 463.57946,680.77301 C 465.96949,679.00998 468.94981,678.4543 471.57558,677.21619 C 472.9788,676.55455 474.26719,675.67025 475.64833,674.96367 C 484.40505,669.97035 466.5489,680.2451 461.94667,682.79243 C 461.21465,683.1976 463.32351,681.84142 464.01592,681.37176 C 465.98057,680.03912 467.89135,678.69845 469.75864,677.23178 C 474.32863,673.95108 478.32478,669.974 482.52873,666.25655 C 486.56924,663.0982 490.71663,660.26937 494.13542,656.41523 C 496.65939,652.88253 499.54674,649.63034 501.91769,645.98962 C 504.30269,642.64944 506.33111,639.08799 508.62386,635.6866 C 510.91088,631.8675 513.69604,628.37037 516.62191,625.02458 C 518.5343,622.26764 520.62194,619.63253 522.55249,616.89228 C 524.49281,614.08375 525.9036,610.94946 527.21724,607.80929 C 528.80512,604.37049 529.72574,600.70409 531.01601,597.15643 C 532.26698,593.44761 533.51324,589.73755 535.05708,586.13933 C 535.9188,583.82686 536.92369,581.57535 537.75621,579.25259 L 556.74614,570.3388 C 555.98524,572.76102 554.9371,575.01789 554.04808,577.38801 C 552.59216,580.99895 551.0845,584.57939 549.97628,588.32332 C 549.52042,589.54751 548.97189,590.73974 548.59159,591.98946 C 547.87143,594.35604 547.51037,596.83153 546.1843,598.99124 C 545.08255,602.24537 543.65073,605.54372 541.79091,608.41362 C 541.21065,609.44454 540.7969,610.30195 540.01469,611.20389 C 539.6816,611.58798 539.22084,611.8517 538.90441,612.24962 C 537.77401,613.67112 536.97963,615.43238 535.89865,616.89411 C 532.97578,620.20355 529.89129,623.47347 527.73947,627.35343 C 525.39804,630.70356 523.56914,634.34306 521.00051,637.52191 C 518.86642,641.45552 515.72357,644.55025 513.3376,648.3127 C 512.31361,649.49602 511.41615,650.7914 510.32572,651.9138 C 507.7591,654.55564 504.40225,656.10969 501.65345,658.51307 C 497.36098,662.03414 493.64419,666.22838 489.13444,669.47885 C 487.90398,670.4407 486.7631,671.51841 485.49233,672.42634 C 484.81257,672.91201 484.043,673.26075 483.35124,673.72918 C 475.66034,678.937 467.64704,683.69357 459.39605,687.99852 C 455.40284,690.07907 451.2013,691.69885 447.13488,693.62782 C 443.1464,695.28377 439.39928,697.41172 435.36579,698.95479 C 430.55203,700.93053 425.59746,702.03171 420.42604,702.6425 C 415.07147,703.77867 409.76275,705.0528 404.27712,705.41178 C 397.65768,706.48797 391.06505,707.72956 384.47499,708.97099 C 377.16572,709.96844 369.80874,709.88297 362.44381,709.8028 C 354.96786,709.8491 347.49134,709.7804 340.01544,709.87325 C 333.26508,709.87877 326.51411,709.89664 319.76445,709.78205 C 312.58808,709.56244 305.39935,709.12358 298.33898,707.73832 C 289.81711,706.13958 281.23708,704.51993 273.00476,701.76012 C 265.37217,699.09769 257.62256,696.77779 250.07189,693.87768 C 243.37174,691.14371 236.87782,687.93329 230.05963,685.48003 C 223.0575,682.36661 216.21609,678.90946 209.25972,675.70007 C 201.65069,672.32199 194.25502,668.62752 187.41944,663.8214 C 179.87109,658.98138 172.37873,653.99617 165.27605,648.53608 C 159.79674,644.41101 154.1464,640.44899 149.31915,635.54424 C 144.42091,631.03891 139.43034,626.56538 135.12315,621.48201 C 131.92255,616.91889 128.8216,612.25914 127.31819,606.8227 C 125.96207,602.6185 125.53987,598.25655 124.85485,593.90702 L 143.71657,584.2965 z" />
    <path
       style="opacity:1;fill:#000000;fill-opacity:1;stroke:#000000;stroke-width:1;stroke-linecap:round;stroke-linejoin:round;stroke-miterlimit:7.69999981;stroke-dasharray:none;stroke-dashoffset:0;stroke-opacity:1"
       id="path2393"
       d="M 247.37859,686.3414 C 238.34704,692.28501 231.51091,700.97823 224.64704,709.18526 C 210.28101,727.06231 196.07258,745.07018 181.88742,763.09369 C 174.77852,772.05623 168.17461,781.39759 161.45772,790.6521 L 143.34593,798.45806 C 150.54685,789.13441 157.45454,779.58719 164.82735,770.39489 C 172.18304,761.11623 179.74739,752.01003 186.98076,742.63462 C 190.73871,737.76381 197.04311,729.26846 200.8617,724.38757 C 202.89141,721.7932 204.99243,719.25542 207.0578,716.68934 C 215.23731,706.20726 209.60191,713.11479 217.34442,704.26687 C 220.55143,700.602 223.59737,696.74962 227.71368,694.03573 L 247.37859,686.3414 z" />
    <path
       style="opacity:1;fill:#000000;fill-opacity:1;stroke:#000000;stroke-width:1;stroke-linecap:round;stroke-linejoin:round;stroke-miterlimit:7.69999981;stroke-dasharray:none;stroke-dashoffset:0;stroke-opacity:1"
       id="path2395"
       d="M 448.21863,691.49109 C 453.85608,696.82687 458.72644,702.78747 463.53952,708.85876 C 472.09295,719.15803 479.47562,730.31606 487.92377,740.69349 C 494.56857,748.6806 502.37214,755.59206 509.94953,762.66616 C 513.28775,765.54637 516.58189,768.4819 520.00852,771.25659 L 502.41305,782.24301 C 499.1046,779.32975 495.90141,776.29967 492.6408,773.33246 C 485.16708,766.0863 477.45909,759.01278 470.97504,750.83237 C 462.62329,740.37724 455.22149,729.1962 446.36079,719.1424 C 441.46396,713.24672 436.55359,707.35176 430.29128,702.82999 L 448.21863,691.49109 z" />
    <path
       sodipodi:type="arc"
       style="opacity:1;fill:#ffffff;fill-opacity:1;stroke:#000000;stroke-width:16.33611107;stroke-linecap:round;stroke-linejoin:round;stroke-miterlimit:7.69999981;stroke-dasharray:none;stroke-dashoffset:0;stroke-opacity:1"
       id="path2397"
       sodipodi:cx="260"
       sodipodi:cy="512.36218"
       sodipodi:rx="55.714287"
       sodipodi:ry="81.428574"
       d="M 315.71429,512.36218 A 55.714287,81.428574 0 1 1 204.28571,512.36218 A 55.714287,81.428574 0 1 1 315.71429,512.36218 z"
       transform="matrix(0.7773549,0,0,0.6985411,43.602016,128.02759)" />
    <path
       sodipodi:type="arc"
       style="opacity:1;fill:#ffffff;fill-opacity:1;stroke:#000000;stroke-width:16.33611107;stroke-linecap:round;stroke-linejoin:round;stroke-miterlimit:7.69999981;stroke-dasharray:none;stroke-dashoffset:0;stroke-opacity:1"
       id="path3169"
       sodipodi:cx="260"
       sodipodi:cy="512.36218"
       sodipodi:rx="55.714287"
       sodipodi:ry="81.428574"
       d="M 315.71429,512.36218 A 55.714287,81.428574 0 1 1 204.28571,512.36218 A 55.714287,81.428574 0 1 1 315.71429,512.36218 z"
       transform="matrix(0.7773549,0,0,0.6985411,216.45916,131.599)" />
    <path
       sodipodi:type="arc"
       style="opacity:1;fill:#000000;fill-opacity:1;stroke:#000000;stroke-width:12.03800011;stroke-linecap:round;stroke-linejoin:round;stroke-miterlimit:7.69999981;stroke-dasharray:none;stroke-dashoffset:0;stroke-opacity:1"
       id="path3171"
       sodipodi:cx="251.42857"
       sodipodi:cy="504.50504"
       sodipodi:rx="10"
       sodipodi:ry="7.8571429"
       d="M 261.42857,504.50504 A 10,7.8571429 0 1 1 241.42857,504.50504 A 10,7.8571429 0 1 1 261.42857,504.50504 z" />
    <path
       sodipodi:type="arc"
       style="opacity:1;fill:#000000;fill-opacity:1;stroke:#000000;stroke-width:12.03800011;stroke-linecap:round;stroke-linejoin:round;stroke-miterlimit:7.69999981;stroke-dasharray:none;stroke-dashoffset:0;stroke-opacity:1"
       id="path3173"
       sodipodi:cx="422.85715"
       sodipodi:cy="499.50504"
       sodipodi:rx="8.5714283"
       sodipodi:ry="8.5714283"
       d="M 431.42858,499.50504 A 8.5714283,8.5714283 0 1 1 414.28572,499.50504 A 8.5714283,8.5714283 0 1 1 431.42858,499.50504 z"
       transform="translate(1.4285714,5.7142857)" />
    <path
       style="opacity:1;fill:#000000;fill-opacity:1;stroke:#000000;stroke-width:1.20000005;stroke-linecap:round;stroke-linejoin:round;stroke-miterlimit:7.69999981;stroke-dasharray:none;stroke-dashoffset:0;stroke-opacity:1"
       id="path3179"
       d="M 333.34375,542.46875 C 330.72412,543.87495 327.99793,545.06842 325.34375,546.40625 C 324.44523,547.16429 324.76808,548.43712 324.59413,549.45405 C 324.17354,551.9025 323.3754,554.28 322.36774,556.54577 C 320.85587,559.56174 319.08608,562.44491 317.18502,565.22859 C 315.52833,567.44157 313.56344,569.3948 311.79889,571.51832 C 309.37801,574.2735 306.97392,577.0484 304.45712,579.7152 C 303.2067,580.86634 301.80184,581.82515 300.35122,582.7041 C 297.75648,584.34678 295.15851,585.98434 292.5625,587.625 C 294.35417,586.59375 296.14583,585.5625 297.9375,584.53125 C 294.75,586.42708 291.5625,588.32292 288.375,590.21875 C 287.70096,591.10213 286.46656,591.4625 286.0625,592.5625 C 285.92133,594.15696 286.98911,595.51972 288.13427,596.49905 C 291.78699,599.91757 295.60451,603.16478 299.05368,606.79567 C 301.21007,609.19365 303.16432,611.77043 305.07536,614.36725 C 310.39203,621.79744 315.75981,629.19192 320.98777,636.68499 C 322.18954,638.41607 323.43933,640.12439 324.36268,642.02681 C 325.50893,644.23977 326.46105,646.54616 327.36277,648.8673 C 328.15562,650.64596 328.86489,652.49144 329.96937,654.10499 C 330.5424,654.96906 331.23505,655.76157 332.125,656.3125 C 332.92832,656.74534 333.9533,656.57813 334.56675,655.8966 C 335.71721,654.95723 336.75272,653.86715 338.03125,653.09375 C 339.09136,652.3817 339.24647,651.00933 339.45621,649.85657 C 339.68808,648.35925 340.19345,646.91842 340.625,645.46875 C 341.30932,643.77665 341.78539,641.99874 342.69002,640.40121 C 344.09353,637.56703 345.53872,634.73686 346.59375,631.75 C 347.59485,628.64988 348.16922,625.43117 349.09485,622.30863 C 349.68127,620.28302 350.51372,618.34225 351.37543,616.42212 C 352.17772,613.98793 353.41004,611.69244 355.05675,609.72437 C 357.06018,607.18657 359.15532,604.66913 361.7339,602.69219 C 364.29912,600.83975 367.08263,599.32146 369.75,597.625 C 370.5421,596.91261 370.23386,595.55401 369.4375,594.96875 C 367.35133,593.12778 365.04536,591.55957 362.89038,589.80258 C 359.60724,587.28072 356.4879,584.50419 353.90281,581.25672 C 351.82396,578.69005 349.96374,575.95659 348.02314,573.2857 C 346.60381,571.14638 345.04675,569.05392 344.16407,566.61877 C 342.85129,563.17525 342.17835,559.538 341.2024,555.99511 C 340.18526,552.6763 338.93769,549.43372 337.94219,546.10782 C 337.78866,544.98825 336.37262,544.85539 335.73742,545.65163 C 335.0925,546.62316 333.53185,546.02772 333.87411,544.8544 C 333.9094,544.10407 334.5547,543.19213 333.875,542.5625 C 333.73383,542.43115 333.52025,542.41094 333.34375,542.46875 z M 330.90625,556.84375 C 332.48514,560.2506 332.94062,564.01213 333.78308,567.63415 C 334.45952,570.33504 335.59863,572.89393 336.90625,575.34375 C 339.97587,579.49195 343.07903,583.61633 346.25,587.6875 C 347.7913,589.56816 349.47076,591.3355 351.34194,592.89202 C 353.96412,595.12276 356.6523,597.28175 359.40676,599.34405 C 360.32439,599.78442 360.63793,601.20916 359.63449,601.74458 C 358.90711,602.39844 357.93339,602.66462 357.15625,603.25 C 355.17072,604.36967 353.311,605.70767 351.55365,607.15576 C 349.16011,609.3619 346.90595,611.7499 345.08975,614.46107 C 343.33725,617.005 342.31694,619.95231 341.21844,622.81516 C 339.84875,626.82733 338.5443,630.86397 337.11331,634.85472 C 336.59386,636.21757 336.03932,637.56947 335.50707,638.9242 C 335.22933,639.6648 335.06265,641.37352 333.9375,641 C 333.37506,640.25599 333.63453,639.15428 333.20164,638.30785 C 332.31357,635.72316 331.01352,633.29564 329.57639,630.97842 C 327.83252,628.31474 325.90003,625.78166 324.08031,623.16979 C 319.93185,617.36775 315.61002,611.6919 311.3125,606 C 308.90065,602.94433 306.40816,599.92935 303.51355,597.31348 C 301.10287,595.04454 298.51825,592.95214 296.29971,590.48721 C 295.48174,589.79335 295.49285,588.51487 296.25,587.78125 C 297.0614,587.07705 298.02784,586.55809 298.8877,585.90557 C 301.9864,583.73153 305.36212,581.99296 308.50963,579.89261 C 310.50349,578.68314 312.37069,577.27546 314.06528,575.6725 C 318.52494,571.42761 322.71435,566.91089 327.06015,562.55194 C 328.65497,560.89299 329.57764,558.75566 330.8125,556.84375 L 330.90625,556.84375 z M 338.21875,651.5 C 338.44175,651.67003 337.94882,651.4696 338.21875,651.5 z" />
    <path
       style="opacity:1;fill:#000000;fill-opacity:1;fill-rule:evenodd;stroke:none;stroke-width:3;stroke-linecap:round;stroke-linejoin:round;marker:none;marker-start:none;marker-mid:none;marker-end:none;stroke-miterlimit:4;stroke-dasharray:none;stroke-dashoffset:0;stroke-opacity:1;visibility:visible;display:inline;overflow:visible;enable-background:accumulate"
       d="M 341.43156,570.51942 C 341.34738,569.7618 341.2632,569.00419 341.17902,568.24657 C 340.78474,564.69799 337.89922,560.68321 337.13841,557.63997 C 336.8305,556.40832 335.51126,554.75013 334.86557,554.10444 C 334.61303,553.8519 334.36049,553.59936 334.10795,553.34682 C 332.73,551.96887 331.75592,551.07398 329.81481,551.07398 C 327.14892,551.07398 326.6775,552.19098 325.26912,553.59936 C 324.24188,554.6266 324.29715,557.05853 323.75389,558.14505 C 322.90381,559.84521 323.67166,562.26498 322.99628,563.95343 C 322.2865,565.72786 319.18306,567.25528 318.19805,567.99404 C 316.8434,569.01002 314.95209,570.48239 313.14729,572.28718 C 311.45563,573.97884 311.36277,575.33439 309.86429,576.83287 C 308.25241,578.44476 306.67647,579.51562 305.31861,580.87348 C 303.9094,582.28269 302.65653,582.52541 301.53054,583.6514 C 300.34493,584.837 298.16059,585.50612 296.98485,586.68186 C 295.13864,588.52807 294.20693,589.22612 294.20693,592.2377 C 294.20693,594.17267 297.07727,597.63342 298.24754,598.80369 C 302.11464,602.67079 306.55653,604.73915 309.35922,609.41029 C 310.90461,611.98595 312.70491,614.74406 313.9049,617.74405 C 314.79232,619.96258 316.19612,622.82544 317.69298,625.32019 C 319.17763,627.79462 321.89238,631.44616 322.99628,633.65395 C 323.92918,635.51975 327.03932,638.45461 328.29958,639.71487 C 329.75974,641.17503 331.82455,642.03399 333.60288,642.74533 C 335.27006,643.4122 337.27498,642.8323 338.4011,641.98771 C 338.68682,641.77342 338.90618,641.48263 339.15872,641.2301 C 341.30843,639.08038 342.69425,630.65718 342.69425,627.59304 C 342.69425,624.98208 343.90081,622.65453 344.96709,620.52197 C 345.83781,618.78055 346.30253,618.17638 347.49248,616.98644 C 349.00655,615.47236 349.74615,614.34916 351.28055,613.19836 C 352.77564,612.07704 354.47133,611.01773 355.5737,609.91537 C 357.00291,608.48616 358.51651,607.32313 358.85669,605.62222 C 359.42117,602.79981 359.33393,602.6196 361.63461,600.31892 C 363.34845,598.60508 360.14451,595.87373 359.86684,594.76308 C 359.49968,593.29444 355.92431,590.06293 354.81608,588.9547 C 353.22093,587.35955 351.85154,584.95262 351.02801,582.89379 C 350.27849,581.01999 348.18368,579.16339 347.23994,577.59049 C 346.12529,575.73274 344.27592,574.35732 343.19933,573.54988 C 342.04092,572.68107 341.94804,572.06886 341.43156,570.51942 z"
       id="path3183" />
    <path
       style="opacity:1;fill:#000000;fill-opacity:1;stroke:none;stroke-width:1.20000005;stroke-linecap:round;stroke-linejoin:round;stroke-miterlimit:7.69999981;stroke-dasharray:none;stroke-dashoffset:0;stroke-opacity:1"
       id="path3185"
       d="M 417.33838,344.13667 C 423.48809,335.17133 429.8574,326.32976 435.91756,317.29433 C 445.17518,303.25738 455.40247,289.86417 465.63708,276.5276 C 473.27843,266.26932 480.54509,255.75271 487.90677,245.29599 C 492.74482,238.74279 497.7285,232.28694 502.45996,225.65677 C 505.20292,222.00424 503.85231,223.75934 506.50451,220.38588 L 533.3018,208.93675 C 530.52834,212.34739 531.967,210.62639 528.97993,214.09479 C 524.42306,221.00269 519.01142,227.3836 514.01674,233.97411 C 506.27812,244.62978 498.46113,255.21585 490.6235,265.80086 C 480.42488,278.94056 470.21131,292.16386 461.27783,306.20019 C 455.57954,314.77676 449.42755,323.11357 444.76157,332.319 L 417.33838,344.13667 z" />
    <path
       style="opacity:1;fill:#000000;fill-opacity:1;stroke:none;stroke-width:1.20000005;stroke-linecap:round;stroke-linejoin:round;stroke-miterlimit:7.69999981;stroke-dasharray:none;stroke-dashoffset:0;stroke-opacity:1"
       id="path3187"
       d="M 309.90606,345.0263 C 310.2505,338.97972 310.35083,332.9245 310.45079,326.86939 C 310.58031,316.22668 310.69569,305.58401 310.68366,294.94027 C 310.69311,284.18497 310.59012,273.43116 310.57872,262.67557 C 310.50162,254.78799 310.33714,246.90133 310.30233,239.01342 C 310.25517,232.84405 310.22394,226.67406 310.24848,220.50448 C 310.46685,215.2447 311.39222,210.05604 311.79533,204.80812 C 311.88671,203.9888 311.97808,203.16948 312.06946,202.35016 L 338.49751,189.41118 C 338.33522,190.16859 338.17292,190.92601 338.01062,191.68343 C 337.6713,196.90634 337.11222,202.09223 336.24914,207.25648 C 336.27386,213.44436 336.2421,219.63263 336.1953,225.82029 C 336.16023,233.80208 335.99581,241.78264 335.91891,249.7641 C 335.90748,260.55534 335.80454,271.34479 335.81397,282.13574 C 335.80204,292.70039 335.91619,303.26395 336.04684,313.82756 C 336.1454,319.69775 336.2403,325.56838 336.59157,331.42936 L 309.90606,345.0263 z" />
    <path
       style="opacity:1;fill:#000000;fill-opacity:1;stroke:none;stroke-width:1.20000005;stroke-linecap:round;stroke-linejoin:round;stroke-miterlimit:7.69999981;stroke-dasharray:none;stroke-dashoffset:0;stroke-opacity:1"
       id="path3189"
       d="M 230.97288,350.32886 C 226.94003,346.16065 222.61115,342.29687 218.12569,338.62334 C 211.5926,332.48866 206.36805,325.25021 201.5019,317.76846 C 194.89593,308.72908 189.5284,298.89791 183.49544,289.49179 C 178.3656,281.64252 172.50935,274.27607 166.58952,267.00972 C 162.15736,261.17302 156.92611,255.90977 152.83362,249.82971 C 150.12871,245.62781 146.7379,241.99526 144.27434,237.63371 C 140.64468,233.6647 138.92713,228.5551 136.2696,224.0042 C 134.81859,221.83871 133.77784,219.45722 132.50336,217.18953 L 157.9965,202.55536 C 159.19833,204.82955 160.25644,207.17802 161.63995,209.35157 C 164.27004,213.92331 166.16545,218.92461 169.70094,222.95164 C 172.21345,227.18491 175.66777,230.73885 178.01871,235.08342 C 181.95793,241.14894 186.85964,246.56147 191.31059,252.24958 C 197.08412,259.73997 202.90697,267.22352 207.90608,275.26775 C 213.80512,284.73867 219.36729,294.41208 225.95365,303.43454 C 230.89239,310.60409 236.21279,317.45378 242.82106,323.18931 C 247.34421,327.06119 251.73848,331.09492 256.49097,334.69135 L 230.97288,350.32886 z" />
    <path
       style="opacity:1;fill:#000000;fill-opacity:1;stroke:none;stroke-width:1.20000005;stroke-linecap:round;stroke-linejoin:round;stroke-miterlimit:7.69999981;stroke-dasharray:none;stroke-dashoffset:0;stroke-opacity:1"
       id="path3191"
       d="M 566.64521,455.65136 C 577.31784,456.1978 587.99997,456.4342 598.68138,456.75724 C 635.80204,458.00801 672.59323,451.20078 708.99746,444.80382 C 738.01422,439.08567 766.26167,430.40895 794.26019,421.02801 L 773.86903,436.82773 C 746.6627,445.04388 719.27808,452.68872 691.3498,458.09843 C 653.69266,464.65279 615.87391,472.14765 577.49567,472.14956 C 565.80002,472.4761 554.10375,472.7255 542.41528,473.25544 L 566.64521,455.65136 z" />
    <path
       style="opacity:1;fill:#000000;fill-opacity:1;stroke:none;stroke-width:1.20000005;stroke-linecap:round;stroke-linejoin:round;stroke-miterlimit:7.69999981;stroke-dasharray:none;stroke-dashoffset:0;stroke-opacity:1"
       id="path3195"
       d="M 568.22819,535.44127 C 575.52836,533.41158 582.72928,531.40849 590.2323,530.25518 C 612.48947,527.95946 634.93061,528.03448 657.28463,527.90084 C 683.47328,527.4149 709.64314,528.02486 735.8025,529.20273 C 746.62884,530.20969 757.64447,529.37425 768.38396,531.13742 L 744.90965,547.63319 C 734.77904,546.07835 724.48842,545.75838 714.30637,544.62017 C 688.55781,542.59846 662.73576,542.12082 636.91477,542.74221 C 613.90265,543.21922 590.72491,543.32223 567.95942,547.0857 C 560.13202,548.84527 552.21685,550.8411 544.87291,554.12329 L 568.22819,535.44127 z" />
    <path
       style="opacity:1;fill:#000000;fill-opacity:1;stroke:none;stroke-width:1.20000005;stroke-linecap:round;stroke-linejoin:round;stroke-miterlimit:7.69999981;stroke-dasharray:none;stroke-dashoffset:0;stroke-opacity:1"
       id="path3197"
       d="M 100.05547,469.21483 C 92.255741,471.54329 83.844274,471.87021 75.758042,472.6235 C 60.346058,475.42591 44.759551,476.84391 29.137611,477.75708 C 13.761321,478.42661 -1.6304752,478.53109 -17.016906,478.78837 C -25.674512,478.9387 -34.332802,479.01002 -42.991275,479.07926 C -49.75732,479.44071 -56.447718,478.6734 -63.165038,478.01218 C -66.413025,477.42306 -69.813957,477.84571 -73.062128,477.35121 C -75.806056,476.93348 -78.59447,475.77637 -81.260447,475.0105 L -57.049617,458.45097 C -51.294292,460.16178 -45.538631,460.93168 -39.529855,461.18731 C -32.842256,461.82769 -26.170803,462.16197 -19.448185,461.98134 C -11.090567,462.08365 -2.7334079,462.20717 5.6239726,462.32754 C 20.791573,462.49077 35.971276,462.4107 51.120766,461.57926 C 66.903025,460.57072 82.592926,458.81375 98.159318,455.96924 C 106.93387,454.85739 115.66456,453.53435 124.2854,451.61075 L 100.05547,469.21483 z" />
    <path
       style="opacity:1;fill:#000000;fill-opacity:1;stroke:none;stroke-width:1.20000005;stroke-linecap:round;stroke-linejoin:round;stroke-miterlimit:7.69999981;stroke-dasharray:none;stroke-dashoffset:0;stroke-opacity:1"
       id="path3199"
       d="M 108.13669,560.12856 C 100.71598,559.72248 93.281053,559.75341 85.852408,559.61106 C 72.363882,559.46824 58.875197,559.48013 45.386135,559.47875 C 31.060465,559.31106 16.736185,559.45213 2.41094,559.56474 C -4.5722699,560.04821 -11.673792,559.12803 -18.647658,559.73477 C -20.697831,559.91314 -23.791581,560.75152 -25.828743,561.25524 C -31.652744,562.55561 -37.365062,564.18142 -43.263325,565.12051 C -50.001958,565.29965 -56.393156,567.41713 -63.006516,568.56628 C -66.078279,568.79476 -68.980542,569.80547 -71.974634,570.43864 C -72.857245,570.62529 -73.779015,570.66229 -74.629992,570.96176 C -76.155036,571.49843 -77.497385,572.45969 -78.969495,573.12803 C -73.626688,569.61203 -91.163003,579.43375 -85.286947,576.0081 C -57.632461,559.88596 -54.819,557.8771 -63.716174,563.98893 L -91.148384,574.81732 C -80.268959,566.82198 -68.360376,560.11476 -55.917792,554.88353 C -50.813873,552.73813 -45.28239,552.00315 -39.851703,551.08004 C -33.219085,549.74954 -26.665363,548.09174 -19.903166,547.5249 C -14.113828,546.42684 -8.4547653,544.75642 -2.654623,543.6988 C 6.523979,542.2468 15.835196,543.27153 25.088804,543.0883 C 39.335148,543.20277 53.580473,543.34146 67.827294,543.17429 C 81.437763,543.1729 95.04784,543.18337 108.65779,543.04198 C 116.5613,542.89812 124.46981,542.91501 132.36662,542.52448 L 108.13669,560.12856 z" />
  </g>
</svg>
