<?xml version="1.0" encoding="UTF-8" standalone="no"?>
<!-- Created with Inkscape (http://www.inkscape.org/) -->
<svg
   xmlns:dc="http://purl.org/dc/elements/1.1/"
   xmlns:cc="http://creativecommons.org/ns#"
   xmlns:rdf="http://www.w3.org/1999/02/22-rdf-syntax-ns#"
   xmlns:svg="http://www.w3.org/2000/svg"
   xmlns="http://www.w3.org/2000/svg"
   xmlns:sodipodi="http://sodipodi.sourceforge.net/DTD/sodipodi-0.dtd"
   xmlns:inkscape="http://www.inkscape.org/namespaces/inkscape"
   width="744.09448819"
   height="1052.3622047"
   id="svg2"
   sodipodi:version="0.32"
   inkscape:version="0.46"
   sodipodi:docname="kura.svg"
   inkscape:output_extension="org.inkscape.output.svg.inkscape">
  <defs
     id="defs4">
    <inkscape:perspective
       sodipodi:type="inkscape:persp3d"
       inkscape:vp_x="0 : 526.18109 : 1"
       inkscape:vp_y="0 : 1000 : 0"
       inkscape:vp_z="744.09448 : 526.18109 : 1"
       inkscape:persp3d-origin="372.04724 : 350.78739 : 1"
       id="perspective10" />
  </defs>
  <sodipodi:namedview
     id="base"
     pagecolor="#ffffff"
     bordercolor="#666666"
     borderopacity="1.0"
     gridtolerance="10000"
     guidetolerance="10"
     objecttolerance="10"
     inkscape:pageopacity="0.0"
     inkscape:pageshadow="2"
     inkscape:zoom="0.35"
     inkscape:cx="375"
     inkscape:cy="520"
     inkscape:document-units="px"
     inkscape:current-layer="layer1"
     showgrid="false"
     inkscape:window-width="640"
     inkscape:window-height="675"
     inkscape:window-x="22"
     inkscape:window-y="22" />
  <metadata
     id="metadata7">
    <rdf:RDF>
      <cc:Work
         rdf:about="">
        <dc:format>image/svg+xml</dc:format>
        <dc:type
           rdf:resource="http://purl.org/dc/dcmitype/StillImage" />
      </cc:Work>
    </rdf:RDF>
  </metadata>
  <g
     inkscape:label="Layer 1"
     inkscape:groupmode="layer"
     id="layer1">
    <path
       style="opacity:1;fill:#000000;fill-opacity:1;stroke:none;stroke-width:1.20000005;stroke-linecap:round;stroke-linejoin:round;stroke-miterlimit:7.69999981;stroke-dasharray:none;stroke-dashoffset:0;stroke-opacity:1"
       id="path2453"
       d="M 595.33528,244.22353 C 579.08916,217.73053 548.48593,206.17818 520.91011,195.43191 C 512.6433,192.84119 504.47713,189.90429 496.10969,187.65977 C 452.00371,175.82857 403.6367,169.91457 358.16393,167.44373 C 343.75742,166.66092 329.32093,166.59342 314.89943,166.16827 C 299.70332,166.12586 284.50361,165.70704 269.31111,166.04104 C 254.2932,166.3712 239.28241,167.12846 224.29633,168.16012 C 195.14785,170.16675 162.1446,173.14588 133.49712,179.63891 C 95.515818,188.24749 90.236603,192.54855 55.575127,207.95127 C 22.476297,226.11927 -6.4719847,250.06791 -30.228903,279.43457 C -37.420572,288.32441 -43.544142,298.02839 -50.082944,307.40888 C -50.652703,308.22625 -47.785998,304.20448 -48.143419,305.13451 C -51.631066,314.20965 -55.733562,323.03638 -59.528633,331.98732 C -71.200416,367.98498 -76.053734,406.35861 -70.326811,444.01137 C -65.994337,472.49605 -61.184085,482.41243 -51.807538,509.65973 C -45.806258,521.47822 -40.445852,533.64463 -33.803698,545.1152 C -3.6387208,597.20813 37.610865,643.21509 83.10116,682.33748 C 95.951797,693.38923 109.59635,703.48282 122.84394,714.0555 C 175.76693,751.97612 235.15208,778.61895 299.1841,790.87731 C 339.4397,798.58388 355.54238,797.85105 396.62003,799.78497 C 476.85453,798.96003 558.19828,788.25711 631.81847,754.58486 C 644.26739,748.891 655.95666,741.6647 668.02575,735.20463 C 700.32295,714.9991 721.87988,692.01965 741.03275,659.34034 C 741.64957,658.2879 740.58369,656.83958 740.96647,655.68131 C 762.65672,590.0477 744.93211,655.56782 761.90782,587.71019 C 772.9997,532.71115 772.72613,476.35942 767.46399,420.71397 C 766.48277,410.3379 765.10285,400.00341 763.92229,389.64813 C 762.16822,379.1571 760.98948,368.55351 758.66009,358.17506 C 752.42599,330.39941 741.60086,301.37248 726.81054,276.99101 C 713.8186,255.57413 707.69778,250.19818 691.39582,231.59573 C 683.6397,224.71661 676.3579,217.2623 668.12746,210.95837 C 625.73905,178.49182 574.12323,158.56787 522.84028,145.30308 C 507.73928,141.39707 492.3807,138.56492 477.15091,135.19584 C 431.88522,126.89165 385.96859,124.20511 340.02407,125.39572 C 326.21252,125.75364 312.42932,126.83699 298.63194,127.55763 L 312.74297,99.565113 C 326.47193,99.096747 340.19327,98.259501 353.92986,98.160017 C 399.88154,97.82722 445.96746,100.60485 491.2097,108.97093 C 506.66439,112.0967 522.26677,114.56488 537.57377,118.34824 C 551.72119,121.845 565.65097,126.20935 579.48561,130.7897 C 616.84144,143.1574 653.56056,158.68187 685.75587,181.714 C 694.285,187.81564 701.80712,195.21444 709.83275,201.96466 C 724.29859,218.62806 734.31505,228.80307 745.96047,247.79043 C 767.11431,282.28087 777.82472,322.16082 783.66601,361.80672 C 784.87783,372.20268 786.33955,382.57254 787.30146,392.99459 C 792.48331,449.13887 792.58908,506.0754 781.85189,561.60014 C 779.06821,573.24846 776.9139,585.06542 773.50084,596.54511 C 762.32564,634.13247 750.65373,653.32836 728.83011,690.46301 C 717.05726,710.49547 703.75684,727.38998 685.8645,742.3512 C 676.24371,750.39591 665.33199,756.7569 655.06574,763.95975 C 621.1653,780.93645 614.02017,786.05596 576.60025,798.02817 C 514.32173,817.95369 448.53075,825.477 383.37925,825.49372 C 366.62986,824.82022 349.8257,824.98498 333.13108,823.4732 C 305.2397,820.94751 264.20836,813.56218 237.49278,805.25841 C 222.4635,800.58699 207.88338,794.49886 193.51161,788.08375 C 149.51642,768.44569 147.98196,765.0771 108.15284,738.68697 C 94.704669,728.30207 80.846802,718.42711 67.808317,707.53228 C 41.947563,685.92328 22.794493,666.72721 0.70651551,641.42301 C -20.498766,617.13003 -34.505903,599.00827 -51.227272,571.73705 C -58.116439,560.50136 -64.007632,548.68347 -70.397812,537.15668 C -79.086579,512.98112 -85.895538,497.38912 -90.325952,472.03283 C -95.248388,443.86059 -94.280284,413.34075 -88.341404,385.40169 C -86.45646,376.5341 -83.450609,367.94235 -81.005211,359.21267 C -77.24921,350.09408 -74.297247,340.60117 -69.737209,331.8569 C -56.027177,305.5667 -37.732062,272.88607 -17.732963,248.95471 C 6.362656,220.12137 35.650385,196.64874 68.836283,179.07872 C 102.41731,165.06741 110.33543,160.00079 146.91546,152.25937 C 161.34757,149.20511 176.05122,147.57185 190.69327,145.7761 C 236.58251,140.1481 282.72695,138.31479 328.93869,138.79178 C 357.03918,139.4332 386.83492,139.76304 414.90148,141.77868 C 442.05186,143.72853 456.74741,145.93165 482.99958,150.60162 C 493.08988,152.39657 503.21491,154.0736 513.18457,156.44886 C 521.71341,158.48085 530.01911,161.35587 538.43638,163.80938 C 546.12364,166.40725 553.9366,168.65923 561.49815,171.603 C 582.59473,179.81606 603.30632,191.33777 617.91858,208.95305 L 595.33528,244.22353 z"
       inkscape:export-filename="D:\kura.png"
       inkscape:export-xdpi="90"
       inkscape:export-ydpi="90" />
    <path
       style="opacity:1;fill:#000000;fill-opacity:1;stroke:none;stroke-width:1.20000005;stroke-linecap:round;stroke-linejoin:round;stroke-miterlimit:7.69999981;stroke-dasharray:none;stroke-dashoffset:0;stroke-opacity:1"
       id="path2455"
       d="M 246.98187,337.29296 C 251.72052,347.19558 257.65877,357.84756 267.49537,363.5395 C 269.12568,364.48289 270.97427,364.98479 272.71372,365.70743 C 281.66044,367.01162 289.97868,364.36271 293.78753,355.71316 C 252.02109,424.46575 281.59673,387.12141 277.8067,372.27487 C 277.60303,371.47703 276.98689,370.84657 276.57699,370.13242 C 275.78922,369.80562 275.0538,369.29897 274.21369,369.15204 C 267.55909,367.98826 256.18679,371.35608 250.1291,373.99897 C 235.5337,390.67388 271.8691,325.95377 266.59763,347.36889 L 241.94608,381.13891 C 239.32979,363.59397 251.47551,343.64562 267.64995,336.37971 C 275.35776,334.00921 286.79579,330.51053 294.80101,332.71227 C 296.29677,333.12366 297.59394,334.06342 298.99041,334.73899 C 299.95459,335.8782 301.22707,336.81599 301.88296,338.15661 C 303.6383,341.7445 302.81404,352.04625 300.90731,355.54182 C 293.69463,368.76469 285.95764,381.69474 278.4828,394.7712 C 271.50539,402.01455 262.20989,404.27947 252.47577,401.55542 C 250.53069,400.60135 248.4767,399.84303 246.64053,398.69322 C 236.50764,392.348 230.26323,381.81034 223.53405,372.29265 L 246.98187,337.29296 z"
       inkscape:export-filename="D:\kura.png"
       inkscape:export-xdpi="90"
       inkscape:export-ydpi="90" />
    <path
       style="opacity:1;fill:#000000;fill-opacity:1;stroke:none;stroke-width:1.20000005;stroke-linecap:round;stroke-linejoin:round;stroke-miterlimit:7.69999981;stroke-dasharray:none;stroke-dashoffset:0;stroke-opacity:1"
       id="path2457"
       d="M 484.48442,344.0766 C 490.42107,356.15941 494.81256,370.06332 504.57987,379.80739 C 505.95448,381.17872 507.66536,382.16539 509.20811,383.34439 C 513.42178,385.1056 517.53171,385.41036 521.20519,382.17924 C 522.32508,381.19421 524.70148,377.35639 523.9447,378.64158 C 503.72337,412.98213 502.2,420.60871 506.57253,404.24626 C 506.80518,398.22788 506.50146,384.24498 501.38453,380.01881 C 500.71512,379.46594 499.76193,379.40052 498.95063,379.09138 C 489.54441,380.1719 480.21307,383.55129 472.17155,388.50245 C 470.90098,389.71264 469.6304,390.92282 468.35983,392.133 L 484.53654,354.06724 C 486.02026,352.98582 487.50398,351.9044 488.98769,350.82298 C 496.02956,347.15532 506.79397,342.52012 514.82104,342.2013 C 516.39075,342.13896 517.94875,342.4996 519.5126,342.64875 C 520.91289,343.33954 522.50191,343.73618 523.71349,344.72112 C 530.24145,350.02796 530.36582,363.65944 531.41126,371.20961 C 529.89003,391.75243 531.62366,379.54597 507.92134,416.97134 C 506.42435,419.33506 501.09513,421.07265 498.65215,421.31248 C 493.7247,421.7962 492.49608,420.56204 488.12392,418.62615 C 486.38334,417.18193 484.46258,415.93074 482.90218,414.29351 C 473.23549,404.15088 469.05197,390.29446 461.28947,378.88208 L 484.48442,344.0766 z"
       inkscape:export-filename="D:\kura.png"
       inkscape:export-xdpi="90"
       inkscape:export-ydpi="90" />
    <path
       style="opacity:1;fill:#000000;fill-opacity:1;stroke:none;stroke-width:1.20000005;stroke-linecap:round;stroke-linejoin:round;stroke-miterlimit:7.69999981;stroke-dasharray:none;stroke-dashoffset:0;stroke-opacity:1"
       id="path2459"
       d="M 367.22654,462.07658 C 373.60093,470.51468 381.78951,478.43988 392.39648,481.01627 C 394.17428,481.44809 396.02499,481.48761 397.83924,481.72328 C 401.75675,481.7515 406.21614,480.70978 408.77511,477.34049 C 409.52223,476.35679 410.8936,472.88796 410.2423,473.93756 C 390.39159,505.92799 389.09193,518.59191 391.60882,501.6294 C 391.3467,493.55106 390.38286,484.81536 383.70709,479.31046 C 382.48357,478.30153 381.00559,477.64862 379.65485,476.81771 C 366.4768,472.32788 360.43634,476.82183 352.0709,486.76976 C 344.02019,498.54143 326.91145,524.77213 360.71848,470.17074 C 361.80633,468.41377 358.90847,473.89459 358.20305,475.83695 C 356.59214,480.27254 356.87505,480.07954 356.84816,484.08576 C 357.24035,484.53277 357.46954,485.21376 358.02474,485.42679 C 362.43852,487.12032 378.3574,481.74865 383.11682,480.44148 C 387.66318,478.75738 391.21448,477.14693 393.7515,472.92704 C 394.37614,471.88805 396.03627,468.65194 395.4142,469.69247 C 375.57486,502.87727 373.26984,515.18595 376.67976,499.41202 C 376.57583,498.65223 376.56814,497.87293 376.36796,497.13265 C 376.16605,496.38595 376.00537,498.63721 375.78807,499.37958 C 375.42791,500.60995 373.77123,504.07195 374.45369,502.98669 C 392.47962,474.32178 396.92327,460.48369 391.31363,476.70417 C 386.84698,493.98779 402.97689,467.93216 365.20151,512.05134 C 364.56488,512.79489 365.60669,510.13438 365.74178,509.16489 C 366.11532,506.48429 366.09895,507.16611 365.53384,504.98769 C 373.94116,518.40393 355.23193,524.00138 386.76707,476.16173 C 387.89784,474.44633 384.92551,481.54597 386.8266,482.32515 C 392.83033,470.21847 404.08825,457.87881 371.39624,507.42545 C 370.10998,509.37485 373.27853,503.13749 373.94652,500.89954 C 375.39453,496.0484 375.14657,495.19152 375.19,490.70777 C 375.01301,490.32744 374.69069,489.14848 374.65902,489.56678 C 374.55754,490.90733 374.18265,494.67605 374.97199,493.58778 C 381.46247,484.63922 385.8852,474.31738 392.26668,465.29076 C 394.19304,462.56592 389.53777,471.39012 388.43765,474.54057 C 384.67109,485.32702 385.50963,484.03251 384.74343,495.29257 C 385.61249,502.07436 387.12296,510.95906 395.00129,513.25369 C 396.52236,513.69672 398.30695,513.67948 399.74849,513.02229 C 403.28286,511.411 404.2808,506.95688 405.53045,503.91128 C 379.99365,543.81749 387.97687,541.15643 388.04578,523.80829 C 388.08335,514.35105 386.2304,504.5542 382.71245,495.80653 C 382.03037,495.06242 380.57467,492.38946 378.84999,493.96292 C 377.83875,494.8855 377.53456,496.36881 376.76432,497.50039 C 375.51815,499.33119 374.12059,501.05426 372.80863,502.83851 C 365.40927,512.90154 368.45174,508.66349 360.53319,520.4501 C 358.29688,524.16023 351.51303,535.24442 353.82426,531.5805 C 382.79602,485.65246 359.68374,517.22315 362.22294,533.03626 C 362.50888,534.817 363.51453,536.4042 364.16033,538.08816 C 365.44764,539.25957 366.51277,540.73592 368.02227,541.6024 C 374.36187,545.24146 385.73097,544.56593 391.69667,540.41041 C 393.14553,539.40117 394.03636,537.76523 395.2062,536.44264 C 364.38331,588.82209 378.74045,570.15218 378.24451,553.17867 C 378.02781,545.76244 376.4681,538.46474 375.18381,531.18634 C 373.08805,524.96257 373.35711,512.38084 365.6845,509.427 C 364.63282,509.02212 363.45952,509.06748 362.34704,508.88772 C 357.7025,508.97529 353.2705,510.34854 348.821,511.50662 C 346.41343,512.13324 341.29052,513.20755 339.02834,514.47457 C 337.76551,515.18187 336.81736,516.34316 335.71187,517.27745 C 327.61943,533.45519 340.37008,507.72066 353.27087,489.03501 C 354.08486,487.85602 352.84963,491.88904 352.92954,493.3195 C 353.35197,500.88095 356.40922,507.81454 359.05675,514.78719 C 361.82318,520.28273 364.594,526.83056 370.67883,529.49756 C 375.3432,531.54197 380.75718,529.33604 385.23811,528.08347 C 401.11149,521.46779 409.27319,513.022 418.49567,498.77469 C 388.81834,550.27464 404.49449,527.05667 404.91362,511.69143 C 405.08368,505.45691 403.72459,499.72205 401.63317,493.93202 C 400.67157,492.17646 399.54627,489.25931 397.51953,488.14954 C 394.57632,486.53794 385.63515,490.6862 383.05292,491.64487 C 381.31675,492.61022 379.41406,493.32337 377.84441,494.5409 C 375.86447,496.0767 374.12645,497.92148 372.50176,499.82915 C 370.70281,501.94144 366.22737,508.9686 367.60701,506.56141 C 372.57284,497.89703 377.22666,488.97149 383.27784,481.02706 C 385.56258,478.02748 380.28201,487.95608 379.06115,491.52357 C 377.80642,495.18999 376.92767,498.97448 375.86093,502.69994 C 375.30192,506.95111 374.26848,511.16652 374.18391,515.45345 C 373.90132,529.77617 379.21004,546.96538 391.95052,555.09351 C 394.3142,556.60148 397.1149,557.27824 399.69709,558.37061 C 409.18381,560.68957 420.52422,562.12391 429.63646,557.37712 C 434.49054,554.84851 436.7733,551.5578 440.37745,547.57222 C 451.21049,526.07109 436.93294,555.00364 427.03214,567.21467 C 425.29237,569.3604 428.34886,561.83964 428.73614,559.10451 C 429.98744,550.26744 428.98526,541.31226 428.31442,532.48468 C 426.34686,519.66658 426.48816,504.04655 417.20759,493.74319 C 416.04233,492.44951 414.47281,491.58755 413.10543,490.50973 C 411.40461,490.06615 409.75152,489.35822 408.00298,489.179 C 400.87644,488.44854 389.02244,491.85265 383.41313,496.11052 C 381.6173,497.47368 380.19506,499.26912 378.58602,500.84843 C 384.35517,491.56012 389.08964,481.54292 395.89347,472.9835 C 397.74521,470.65396 394.19674,478.71628 393.83118,481.6696 C 392.1906,494.92344 395.15375,508.45014 398.68158,521.11979 C 400.76138,526.59014 400.89358,527.58143 403.55159,532.40032 C 404.19326,533.56366 404.85645,534.72566 405.66702,535.77831 C 405.97154,536.17377 407.10612,537.12132 406.85481,536.69007 C 406.31792,535.76878 405.39586,533.38533 404.77962,534.25555 C 397.19931,544.96004 391.353,556.79252 384.63969,568.061 C 385.17308,566.76382 385.79306,565.49895 386.23987,564.16946 C 389.58643,554.21178 386.22354,561.90339 390.3646,551.10745 C 393.08163,544.02401 396.43852,537.26867 400.03491,530.60473 C 408.0773,517.16158 416.12806,503.72345 424.16206,490.27529 C 425.22302,488.49935 428.37393,483.15254 427.31974,484.9325 C 421.15976,495.3335 415.12409,505.80905 408.84465,516.13837 C 408.49984,516.70557 408.88168,513.99823 409.49349,514.2557 C 415.46533,516.76878 412.8083,518.1676 410.64975,521.09425 C 416.21154,511.94643 420.94965,502.24393 427.33512,493.6508 C 429.56566,490.64911 424.43911,500.5554 423.27186,504.10828 C 419.36697,515.994 416.87202,528.59674 418.60324,541.1421 C 419.05214,544.39507 420.28851,547.48979 421.13115,550.66363 C 423.87686,554.15338 424.67646,558.60446 429.42558,554.56346 C 431.45788,552.83419 435.64811,545.92382 434.36443,548.26321 C 406.45433,599.12713 422.21667,568.08546 425.40586,558.93464 C 426.90949,554.62022 427.86839,550.13485 429.09966,545.73495 C 431.03059,533.45236 433.46412,519.73259 429.24318,507.54596 C 427.68647,503.05144 427.64753,504.29194 426.63367,506.32193 C 460.03849,452.55569 444.185,476.56392 439.073,495.85768 C 436.33677,506.18482 435.11932,516.4311 434.37974,527.04561 C 434.44853,529.26277 434.38202,531.48829 434.58612,533.69711 C 435.35599,542.0288 436.22812,527.48724 432.08198,532.55847 C 424.3122,542.06183 420.19024,554.18084 412.48796,563.73899 C 410.73864,565.90981 413.34249,558.22667 413.63214,555.45383 C 413.95881,552.32657 414.10141,549.1828 414.33605,546.04729 C 414.19516,542.21969 415.15464,531.2489 410.76457,528.41898 C 409.73494,527.75526 408.00414,530.47649 406.42045,532.90176 C 405.03874,535.01773 403.78235,537.21293 402.4633,539.36851 C 423.57872,505.47561 421.03822,506.509 414.42925,523.2509 C 411.249,531.30711 411.57448,530.83265 409.33817,538.63266 L 384.51826,570.93397 C 391.15846,545.80976 403.52366,523.88924 417.37124,501.58199 C 420.64251,497.5034 422.92075,492.77629 428.74969,491.90135 C 437.87677,490.53136 438.33872,508.79624 438.18915,513.61475 C 438.18217,513.78391 437.51665,530.44493 437.42476,530.65217 C 431.14575,544.81294 424.56809,558.97851 416.04505,571.91339 C 415.11719,573.32155 412.43408,571.59979 411.20301,570.44726 C 408.50115,567.91776 414.03758,560.84454 410.58814,559.36089 C 411.20949,548.46328 412.46382,538.02174 414.85615,527.34622 C 415.33739,525.19876 418.64078,511.27261 420.26533,508.46687 C 428.12741,494.88842 436.98125,481.90891 445.3392,468.62993 C 446.92161,468.97706 448.77803,468.71598 450.08641,469.6713 C 452.82242,471.669 453.76167,478.73835 454.08183,481.07279 C 455.62207,492.30374 454.89927,503.6498 452.83789,514.7641 C 451.74065,519.24572 450.89389,523.79619 449.54617,528.20896 C 443.23124,548.88564 430.47071,568.19926 418.79974,585.5291 C 415.70646,590.12222 409.02657,593.87209 403.55974,590.41573 C 401.16925,588.90437 400.18266,585.87811 398.49412,583.6093 C 397.54172,580.11645 396.22123,576.70366 395.6369,573.13075 C 393.54731,560.35378 395.38274,547.83782 398.78586,535.4902 C 399.73478,532.04718 400.44861,528.47018 402.08953,525.29809 C 409.6118,510.75669 418.15994,496.76934 426.19514,482.50496 C 427.31452,481.25255 427.90808,479.0867 429.55327,478.74774 C 433.89781,477.85262 436.32037,480.33013 434.6215,483.53702 C 427.51922,496.94374 419.9512,510.09929 412.46019,523.29275 C 411.44887,525.07393 408.14368,530.25104 409.12037,528.45064 C 414.51414,518.50801 420.18587,508.71871 425.71862,498.85275 C 418.97072,510.07405 412.96519,522.08802 410.95595,535.14803 C 403.47837,547.95289 396.98229,561.38383 388.5232,573.5626 C 387.80414,574.59785 385.95005,573.33853 384.82633,572.76754 C 381.02653,570.83674 377.21733,557.86389 375.85731,554.38999 C 373.11638,544.45283 371.02556,534.54669 370.08162,524.24962 C 369.8197,521.39247 368.89812,508.03305 370.48598,504.80335 C 377.56059,490.4136 386.52244,477.03121 394.54068,463.14514 C 396.41429,461.73556 398.14618,460.11464 400.16151,458.91639 C 407.79148,454.37986 418.83573,451.46302 427.73131,453.04415 C 429.97967,453.44378 432.08358,454.42873 434.25972,455.12102 C 435.93354,456.47941 437.82886,457.60319 439.2812,459.19617 C 449.16578,470.038 449.60975,486.19327 451.56171,499.84207 C 452.42947,507.43398 455.07392,528.30975 451.91753,535.18006 C 437.49975,566.56234 436.83571,567.01781 424.82266,585.12661 C 422.80285,586.96579 420.98039,589.0484 418.76324,590.64417 C 407.54761,598.71649 392.34188,597.23752 379.89125,593.51538 C 376.97298,592.15484 373.79809,591.24567 371.13644,589.43376 C 357.9137,580.43237 351.3357,562.33444 350.77372,546.9856 C 350.61648,542.69109 351.42309,538.41538 351.74777,534.13027 C 358.72354,506.00388 363.82471,500.35972 382.65839,468.96815 C 385.05202,464.97851 390.9008,459.58289 394.75329,457.02723 C 396.50822,455.86304 398.54657,455.19652 400.44321,454.28117 C 411.23635,450.25604 418.65535,447.40361 424.66077,459.68107 C 437.23836,491.21559 421.37348,506.13815 403.68422,536.46127 C 394.24361,549.37551 383.10271,560.24598 367.47105,565.18421 C 363.06327,566.18209 359.60878,567.40463 355.01965,566.76919 C 345.32011,565.42611 340.41527,556.29331 336.44205,548.48942 C 325.04143,520.21591 320.08314,508.71935 352.39536,479.17792 C 361.38137,474.50593 371.9776,472.14394 382.07986,472.1506 C 383.6696,472.56587 385.35061,472.7224 386.84909,473.39641 C 396.0614,477.54008 396.29052,489.43936 398.58333,497.75583 C 399.91195,505.14398 401.5027,512.56043 402.24813,520.03859 C 402.44218,521.98539 403.17176,531.69624 402.12812,533.7933 C 395.18129,547.752 386.76894,560.93202 379.08935,574.50138 C 377.47982,575.55148 376.01804,576.87371 374.26075,577.65168 C 366.23686,581.20395 354.45945,581.27304 346.75105,576.851 C 344.75579,575.70639 343.2362,573.88275 341.47877,572.39862 C 340.3557,570.34486 338.71723,568.49785 338.10956,566.23733 C 336.31298,559.55408 340.2346,545.50024 343.12466,539.85853 C 358.26025,510.31223 362.01411,504.63602 374.87643,483.82359 C 378.89291,477.82894 390.13589,457.8718 398.52716,456.9124 C 402.45332,456.4635 403.67655,459.04758 405.76482,461.44559 C 409.37927,470.85404 411.21978,481.07109 411.92226,491.13025 C 412.12342,494.01066 413.23398,497.12288 412.12799,499.79009 C 406.05304,514.44037 397.85141,528.11538 390.71313,542.27802 C 389.33574,543.95635 388.32438,546.01897 386.58098,547.31301 C 377.59812,553.98056 366.89002,545.72206 363.42365,537.16753 C 362.178,534.09344 361.95139,530.69921 361.21527,527.46505 C 361.20068,523.78961 360.74602,520.08949 361.17152,516.43873 C 361.48783,513.72486 365.27066,499.79527 366.76505,497.02743 C 368.0973,494.5599 382.25902,450.60357 397.44852,454.07321 C 398.6252,454.34199 398.85858,456.03255 399.56362,457.01222 C 400.63871,480.17226 386.36011,495.93943 373.57933,516.09239 C 372.67516,517.51811 371.03268,518.46077 369.43336,519.00148 C 368.18969,519.42194 366.81038,518.88333 365.49889,518.82426 C 364.43881,518.10932 363.08426,517.70352 362.31866,516.67943 C 361.66657,515.80717 361.21724,509.76525 361.40616,509.36692 C 367.88366,495.70909 374.8822,482.26867 382.67069,469.31362 C 383.26276,468.3288 384.86221,468.34929 386.00717,468.44663 C 387.09275,468.53891 387.97565,469.38105 388.95989,469.84826 C 390.01907,471.82362 391.02803,473.2369 391.15104,475.61503 C 391.19586,476.48151 391.09356,477.44648 390.59768,478.15845 C 348.10133,539.17387 362.13202,525.34706 365.9159,509.5317 C 371.25847,490.36243 367.77986,501.41415 389.68784,464.1673 C 393.07034,458.41653 399.82952,459.71419 401.49868,465.69599 C 402.73894,484.31236 402.45666,469.59327 380.18781,508.66953 C 379.00019,510.75351 376.41009,512.9354 374.43032,514.11185 C 371.56655,515.81359 368.54016,516.57488 365.401,517.58179 C 357.76018,519.57494 343.74151,525.07794 336.21897,521.25986 C 334.80169,520.54052 333.82575,519.16773 332.62914,518.12166 C 332.36608,516.64601 331.8123,515.19336 331.83996,513.69469 C 331.89404,510.76375 333.68592,504.36954 335.00613,501.97031 C 345.02596,483.76113 354.54337,465.10099 367.61815,448.88449 C 369.32504,447.23314 370.88011,445.40884 372.7388,443.93044 C 380.97837,437.37672 390.98638,437.13399 400.42629,441.02414 C 402.08989,442.0239 403.88133,442.8366 405.41708,444.02342 C 413.12297,449.97847 415.08447,458.94348 416.16549,468.10727 C 417.33596,487.83881 417.37146,473.80963 394.87731,512.80779 C 391.74249,518.24264 383.78769,518.45884 378.51569,518.14445 C 376.48758,517.73813 374.41078,517.5257 372.43138,516.92548 C 361.6218,513.64764 352.97042,505.84215 345.23388,497.96535 L 367.22654,462.07658 z"
       inkscape:export-filename="D:\kura.png"
       inkscape:export-xdpi="90"
       inkscape:export-ydpi="90" />
    <path
       style="opacity:1;fill:#000000;fill-opacity:1;stroke:none;stroke-width:1.20000005;stroke-linecap:round;stroke-linejoin:round;stroke-miterlimit:7.69999981;stroke-dasharray:none;stroke-dashoffset:0;stroke-opacity:1"
       id="path2461"
       d="M -71.272613,349.5957 C -92.875937,359.63477 -115.18588,368.03566 -137.36483,376.69974 C -157.34392,384.58551 -177.46141,392.12867 -197.60581,399.58143 C -214.12234,405.692 -221.5718,407.83937 -237.3552,415.10343 C -242.84689,417.6309 -248.13638,420.57638 -253.52697,423.31286 C -264.11157,429.475 -274.07406,437.06053 -281.748,446.71788 C -283.33833,448.71925 -287.21263,455.35896 -285.90413,453.16293 C -266.82158,421.13698 -266.20862,411.22237 -267.96806,426.58362 C -267.57576,427.38761 -267.43936,428.37902 -266.79117,428.99557 C -265.29392,430.41973 -261.19414,430.65382 -259.71821,431.01553 C -257.34404,431.59737 -255.03249,432.41522 -252.66279,433.01498 C -249.48249,433.8199 -246.21133,434.27224 -243.07315,435.22829 C -238.53007,436.61236 -234.12889,438.42532 -229.65675,440.02384 C -175.20006,460.90736 -121.84169,484.51959 -67.61559,506.00459 C -31.206184,520.13256 6.1500237,531.79803 44.104014,540.94798 L 26.161486,573.76115 C -10.336869,560.53951 -47.13084,548.14437 -83.43425,534.38363 C -138.03692,513.31626 -192.25784,491.04409 -248.36176,474.15491 C -252.89012,472.95997 -257.37293,471.57666 -261.94685,470.57008 C -268.05776,469.22526 -284.3263,468.27773 -289.33606,464.20824 C -290.59429,463.18617 -291.32962,461.65152 -292.3264,460.37315 C -295.3298,440.50112 -294.1371,455.15529 -270.91379,415.23407 C -264.368,403.98177 -248.69377,394.89345 -237.88492,388.83909 C -232.5107,386.33822 -227.21402,383.66346 -221.76225,381.33646 C -209.31333,376.02285 -194.76248,370.97854 -182.13025,366.31561 C -160.95979,358.50097 -161.36303,358.69467 -140.20813,350.09561 C -133.95766,347.55491 -127.73515,344.94599 -121.49865,342.37118 C -98.505794,332.83032 -75.463746,323.3087 -53.588631,311.35887 L -71.272613,349.5957 z"
       inkscape:export-filename="D:\kura.png"
       inkscape:export-xdpi="90"
       inkscape:export-ydpi="90" />
    <path
       style="opacity:1;fill:#000000;fill-opacity:1;stroke:none;stroke-width:1.20000005;stroke-linecap:round;stroke-linejoin:round;stroke-miterlimit:7.69999981;stroke-dasharray:none;stroke-dashoffset:0;stroke-opacity:1"
       id="path2463"
       d="M 798.17502,356.48819 C 820.06398,357.26206 840.70249,365.47509 861.44536,371.6681 C 867.56137,373.16695 873.63075,374.87079 879.79338,376.16466 C 886.26076,377.52252 892.81352,378.43668 899.31526,379.61908 C 924.58558,384.21469 947.81991,388.26137 973.50682,389.91081 C 979.39477,391.58655 995.35259,389.88299 1000.6948,393.86416 C 1003.193,395.72587 1002.8559,396.78841 1003.385,399.58164 C 998.98123,418.7488 985.33879,436.12272 975.21507,451.55955 C 974.0957,453.26639 972.25118,454.39842 970.54925,455.52524 C 968.33305,456.99257 965.86653,458.0413 963.52516,459.29933 C 960.56529,460.5219 957.65733,461.8786 954.64555,462.96705 C 940.3382,468.13771 925.47674,471.85052 910.90922,476.1719 C 890.83394,482.12711 893.08944,481.59355 873.23672,488.44519 C 854.12821,495.72611 833.45117,505.93872 818.06781,519.77314 C 813.59286,523.79751 809.85786,528.75168 806.10057,533.42438 C 805.10916,534.77979 802.29402,538.94913 803.12634,537.49061 C 839.2635,474.16513 819.68001,512.16235 799.18441,540.727 C 799.10748,540.83421 794.17744,540.53512 792.5914,540.44762 C 786.12488,540.05733 779.74199,539.38635 773.28827,540.06971 L 791.95656,502.89481 C 798.49326,502.80202 805.01138,503.25708 811.55026,503.16188 C 812.74954,503.07173 813.95805,503.06522 815.14808,502.89142 C 815.85959,502.78752 817.56526,501.69529 817.23149,502.33219 C 810.86796,514.47502 803.7619,526.21688 796.75049,537.99751 C 796.54879,538.33639 796.51611,537.15943 796.70845,536.81516 C 803.82229,524.08219 811.07651,511.42448 818.58334,498.91917 C 819.32692,497.68046 820.47632,496.73609 821.42282,495.64455 C 825.72949,491.0063 828.49518,487.74486 833.65875,483.63862 C 850.04293,470.60937 869.60389,461.88884 889.06468,454.6633 C 910.61955,447.2977 905.334,448.99617 927.07536,441.99962 C 941.93208,437.21861 957.01536,432.6968 971.34026,426.41731 C 974.27628,425.13026 977.0747,423.54972 979.94192,422.11592 C 982.09976,420.58631 984.39225,419.23081 986.41544,417.52708 C 987.93396,416.24832 991.39578,411.42914 990.51799,413.20976 C 985.29343,423.80786 978.99036,433.83936 973.27564,444.18139 C 972.58719,445.42728 974.83124,441.78671 975.43853,440.4993 C 976.52398,438.19824 976.96245,435.62746 978.1722,433.37295 C 978.81577,432.46859 980.37503,431.43136 979.81202,430.47477 C 977.55307,426.63668 958.7775,425.19758 955.60508,424.21631 C 917.9067,419.25367 880.41276,412.6941 843.10356,405.39371 C 837.86875,404.06962 832.60479,402.85589 827.39913,401.42145 C 823.13243,400.24574 818.98193,398.66209 814.69423,397.5654 C 803.07316,394.59301 791.07678,392.90938 779.08704,393.95046 L 798.17502,356.48819 z"
       inkscape:export-filename="D:\kura.png"
       inkscape:export-xdpi="90"
       inkscape:export-ydpi="90" />
    <path
       style="opacity:1;fill:#000000;fill-opacity:1;stroke:none;stroke-width:1.20000005;stroke-linecap:round;stroke-linejoin:round;stroke-miterlimit:7.69999981;stroke-dasharray:none;stroke-dashoffset:0;stroke-opacity:1"
       id="path2465"
       d="M 223.82504,769.1591 C 221.36056,790.50707 216.60556,811.45071 213.89149,832.78523 C 210.16105,871.34438 212.07364,910.14742 212.9979,948.79446 C 215.55159,972.83075 213.41976,998.4064 222.54354,1021.2763 C 224.65688,1024.9047 224.27798,1024.4285 224.98788,1021.6125 C 225.28444,1020.4362 225.70599,1019.2949 226.06505,1018.1361 L 210.93363,1057.074 C 209.90551,1058.1041 209.14611,1059.5037 207.84927,1060.1643 C 203.54072,1062.3591 200.96332,1058.8173 199.37641,1055.5404 C 191.62996,1030.6741 193.28793,1004.3122 191.46361,978.61195 C 190.19943,940.38662 188.12763,902.05186 190.77024,863.84149 C 192.34746,849.06512 192.04823,850.01074 194.31075,835.77904 C 195.42631,828.762 197.09257,821.83446 198.04984,814.79409 C 198.56865,810.97844 198.36474,807.08752 199.0321,803.28365 L 223.82504,769.1591 z"
       inkscape:export-filename="D:\kura.png"
       inkscape:export-xdpi="90"
       inkscape:export-ydpi="90" />
    <path
       style="opacity:1;fill:#000000;fill-opacity:1;stroke:none;stroke-width:1.20000005;stroke-linecap:round;stroke-linejoin:round;stroke-miterlimit:7.69999981;stroke-dasharray:none;stroke-dashoffset:0;stroke-opacity:1"
       id="path2467"
       d="M 540.21478,781.75698 C 530.9243,801.54799 529.77518,823.64946 529.06951,845.13694 C 529.09971,875.41824 531.06832,905.64818 531.85855,935.91308 C 532.18444,958.2358 532.18344,980.56029 532.06209,1002.8841 C 531.77157,1011.6994 532.20625,1020.5269 531.86516,1029.3376 L 506.90016,1062.8639 C 508.65302,1054.0144 507.16043,1044.8282 507.9876,1035.8612 C 508.88821,1013.03 509.70809,990.18266 509.14586,967.32998 C 508.50893,937.10532 506.89218,906.92462 506.03514,876.70804 C 506.18274,855.75644 507.09753,834.51148 514.01133,814.51516 L 540.21478,781.75698 z"
       inkscape:export-filename="D:\kura.png"
       inkscape:export-xdpi="90"
       inkscape:export-ydpi="90" />
    <path
       style="opacity:1;fill:#000000;fill-opacity:1;stroke:none;stroke-width:1.20000005;stroke-linecap:round;stroke-linejoin:round;stroke-miterlimit:7.69999981;stroke-dasharray:none;stroke-dashoffset:0;stroke-opacity:1"
       id="path2469"
       d="M 511.80004,1022.0338 C 503.99607,1045.1049 494.8897,1067.7192 485.49946,1090.1854 C 482.76961,1096.7019 479.40306,1102.9248 476.52414,1109.3718 C 475.80301,1110.9867 475.1771,1112.643 474.54724,1114.2956 C 474.41211,1114.6502 474.52893,1115.6239 474.23086,1115.3891 C 469.23358,1111.4527 470.90541,1111.822 474.03117,1107.8699 C 475.57423,1106.0147 477.1173,1104.1595 478.66036,1102.3042 L 463.43612,1140.1075 C 461.78581,1142.1457 460.1355,1144.184 458.4852,1146.2223 C 455.05247,1149.9669 454.41413,1153.1998 448.55242,1149.0787 C 447.88858,1148.6119 448.78018,1147.4612 449.04829,1146.6952 C 452.22884,1137.6091 457.59267,1129.4939 461.40918,1120.693 C 470.62402,1099.2367 479.2886,1077.5069 486.25546,1055.2106 L 511.80004,1022.0338 z"
       inkscape:export-filename="D:\kura.png"
       inkscape:export-xdpi="90"
       inkscape:export-ydpi="90" />
    <path
       style="opacity:1;fill:#000000;fill-opacity:1;stroke:none;stroke-width:1.20000005;stroke-linecap:round;stroke-linejoin:round;stroke-miterlimit:7.69999981;stroke-dasharray:none;stroke-dashoffset:0;stroke-opacity:1"
       id="path2471"
       d="M 526.6424,1038.2714 C 526.50542,1050.4264 525.62073,1062.6174 525.81486,1074.7734 C 526.00635,1086.7638 526.74591,1090.8791 528.06848,1102.564 C 528.67241,1105.7398 529.27635,1108.9156 529.88028,1112.0914 L 506.8672,1144.8615 C 506.39281,1141.3884 505.91842,1137.9152 505.44403,1134.4421 C 504.43737,1125.2725 503.26867,1115.721 502.75657,1106.5104 C 502.12311,1095.1169 502.63974,1083.6794 501.92903,1072.2864 L 526.6424,1038.2714 z"
       inkscape:export-filename="D:\kura.png"
       inkscape:export-xdpi="90"
       inkscape:export-ydpi="90" />
    <path
       style="opacity:1;fill:#000000;fill-opacity:1;stroke:none;stroke-width:1.20000005;stroke-linecap:round;stroke-linejoin:round;stroke-miterlimit:7.69999981;stroke-dasharray:none;stroke-dashoffset:0;stroke-opacity:1"
       id="path2473"
       d="M 535.58912,1033.6254 C 550.50913,1053.3417 567.02158,1071.5839 584.49888,1089.0393 C 597.37291,1102.2725 612.6282,1112.2526 629.01424,1120.4729 L 609.11192,1155.1088 C 593.10145,1145.5066 577.7117,1134.9806 564.54691,1121.5932 C 556.58781,1113.6034 548.42859,1105.812 540.57247,1097.7208 C 531.38224,1088.2557 523.04975,1077.9312 513.04191,1069.2737 L 535.58912,1033.6254 z"
       inkscape:export-filename="D:\kura.png"
       inkscape:export-xdpi="90"
       inkscape:export-ydpi="90" />
    <path
       style="opacity:1;fill:#000000;fill-opacity:1;stroke:none;stroke-width:1.20000005;stroke-linecap:round;stroke-linejoin:round;stroke-miterlimit:7.69999981;stroke-dasharray:none;stroke-dashoffset:0;stroke-opacity:1"
       id="path2475"
       d="M 184.52185,1062.8489 C 171.1073,1079.4981 154.60088,1092.8172 138.1662,1106.2934 C 131.74158,1112.148 123.13577,1116.3524 117.91091,1123.5474 C 117.15532,1124.5879 116.92087,1125.9211 116.42585,1127.1079 L 131.53771,1088.0494 C 137.94614,1080.9402 146.24948,1076.0199 153.63193,1070.0188 C 170.73496,1056.2576 187.10441,1041.6848 200.16059,1023.8795 L 184.52185,1062.8489 z"
       inkscape:export-filename="D:\kura.png"
       inkscape:export-xdpi="90"
       inkscape:export-ydpi="90" />
    <path
       style="opacity:1;fill:#000000;fill-opacity:1;stroke:none;stroke-width:1.20000005;stroke-linecap:round;stroke-linejoin:round;stroke-miterlimit:7.69999981;stroke-dasharray:none;stroke-dashoffset:0;stroke-opacity:1"
       id="path2477"
       d="M 240.92811,1029.7 C 240.13963,1045.0183 242.49099,1060.2735 243.72299,1075.5142 C 243.99335,1078.9857 244.21579,1089.0884 248.13119,1091.2647 L 226.43445,1127.733 C 220.95937,1123.137 219.82506,1115.4572 219.98376,1108.6777 C 219.07456,1093.6554 217.10336,1078.7314 216.21475,1063.715 L 240.92811,1029.7 z"
       inkscape:export-filename="D:\kura.png"
       inkscape:export-xdpi="90"
       inkscape:export-ydpi="90" />
    <path
       style="opacity:1;fill:#000000;fill-opacity:1;stroke:none;stroke-width:1.20000005;stroke-linecap:round;stroke-linejoin:round;stroke-miterlimit:7.69999981;stroke-dasharray:none;stroke-dashoffset:0;stroke-opacity:1"
       id="path2479"
       d="M 246.64008,1024.3509 C 283.74854,1058.4928 324.67184,1088.1763 366.6351,1116.0101 C 371.31234,1118.6034 375.76941,1121.6412 380.66683,1123.7899 C 397.01434,1130.9622 408.8406,1109.9752 366.2506,1157.4679 C 364.90812,1158.9649 365.63469,1153.4341 364.76397,1151.6216 C 363.20906,1148.3849 360.95719,1145.5319 359.0538,1142.487 L 380.47653,1108.8817 C 382.68114,1111.7403 384.88246,1114.6015 387.09037,1117.4575 C 388.9161,1119.8193 393.75499,1121.792 392.57744,1124.5351 C 372.05858,1172.3328 373.64632,1165.7624 348.19089,1147.3219 C 307.72787,1117.4472 267.24689,1087.5995 226.05876,1058.727 L 246.64008,1024.3509 z"
       inkscape:export-filename="D:\kura.png"
       inkscape:export-xdpi="90"
       inkscape:export-ydpi="90" />
    <path
       style="opacity:1;fill:#000000;fill-opacity:1;stroke:none;stroke-width:1.20000005;stroke-linecap:round;stroke-linejoin:round;stroke-miterlimit:7.69999981;stroke-dasharray:none;stroke-dashoffset:0;stroke-opacity:1"
       id="path2481"
       d="M 297.60069,93.164587 C 298.49639,91.85765 299.33899,90.512684 300.2878,89.243776 C 301.77498,87.254856 303.48292,85.432579 304.90472,83.396401 C 306.68585,80.845613 311.42831,72.801475 309.88335,75.501852 C 305.32897,83.462228 301.2586,91.757563 295.87368,99.181341 C 293.19991,102.86746 299.81429,90.96939 301.67769,86.814359 C 303.60706,82.512214 305.3928,78.147084 307.25035,73.813446 C 315.49616,50.891351 323.94216,28.032477 331.99428,5.04247 C 335.02429,-6.494088 338.1876,-18.04822 338.1661,-30.041727 C 336.62885,-50.39626 337.34637,-50.394023 363.15581,-71.312682 C 365.22613,-72.990685 363.85879,-66.029361 364.21028,-63.3877 C 368.03047,-33.839563 374.55066,-4.9425391 383.92726,23.314223 C 389.18275,36.851394 395.05084,50.131169 402.82536,62.432349 C 404.69848,65.396072 406.85138,68.176552 408.72725,71.138532 C 410.4609,73.076222 412.07063,75.064637 413.5082,77.226831 L 390.32317,112.59851 C 389.41288,110.03812 387.76371,108.0738 386.03529,105.97172 C 381.24957,96.149363 387.38012,108.43014 380.70972,96.311398 C 373.46858,83.155716 367.24246,69.515147 362.13462,55.385806 C 358.66143,44.520541 356.15114,37.14854 353.24294,26.024267 C 348.39958,7.4977317 345.39383,-11.423288 340.89754,-30.022635 C 335.51412,-51.997036 337.79899,-35.056711 363.56595,-75.436611 C 363.82007,-75.83484 362.87094,-74.747811 362.71857,-74.300659 C 361.58457,-70.972675 362.19109,-67.101703 362.54023,-63.741643 C 363.05997,-50.659966 359.85982,-39.41291 356.79857,-26.770333 C 353.19695,-16.63228 348.98157,-6.7425703 345.341,3.3770875 C 340.57541,16.623946 336.40204,30.094512 331.37874,43.253642 C 330.52387,45.302258 321.91034,66.117816 320.68452,68.38582 C 308.72822,90.50721 296.56609,111.81814 282.45891,132.41282 L 297.60069,93.164587 z"
       inkscape:export-filename="D:\kura.png"
       inkscape:export-xdpi="90"
       inkscape:export-ydpi="90" />
  </g>
</svg>
